<svg width="23" height="23" viewBox="0 0 23 23" fill="none" xmlns="http://www.w3.org/2000/svg">
<path d="M17.1624 5.88775C18.2109 6.03941 19.1473 6.40772 19.9326 7.08369C21.6973 8.60027 22.3834 10.5242 21.7923 12.7817C21.2055 15.0219 19.6996 16.4129 17.4213 16.8332C14.3621 17.3965 11.4841 15.2949 11.0137 12.2184C10.9749 11.9628 10.9663 11.7028 10.962 11.4428C10.9533 11.0138 11.2338 10.7062 11.6265 10.7018C12.0364 10.6932 12.3168 10.9878 12.3384 11.4255C12.4161 13.137 13.1971 14.4153 14.7461 15.1519C17.2315 16.3305 20.1397 14.749 20.5625 12.0148C20.9207 9.69655 19.2508 7.52133 16.9208 7.27001C15.9629 7.16601 15.087 7.38267 14.2758 7.93297C14.5476 7.93297 14.8195 7.92864 15.0913 7.93297C15.5098 7.93731 15.8076 8.25362 15.7903 8.6696C15.773 9.00759 15.4926 9.3109 15.156 9.3109C14.2024 9.31957 13.2445 9.3239 12.2909 9.3109C11.8681 9.30657 11.5704 8.88193 11.6739 8.45295C11.8983 7.53 12.127 6.61138 12.36 5.69276C12.4592 5.30278 12.8432 5.08612 13.21 5.18578C13.5811 5.28545 13.7925 5.65376 13.7019 6.04807C13.6544 6.25606 13.6027 6.46405 13.5379 6.71104C14.2542 6.26906 14.992 6.01341 15.7903 5.90075C15.7903 5.28111 15.7903 4.67448 15.7903 4.07217C15.7903 3.77752 15.7903 3.48287 15.7903 3.18389C15.7903 2.67691 15.5055 2.39959 14.9964 2.39959C12.7052 2.39959 10.4183 2.39959 8.1271 2.39959C6.8197 2.39959 5.5123 2.39959 4.20921 2.39959C3.65691 2.39959 3.38507 2.66825 3.38507 3.21855C3.38507 8.6696 3.38507 14.1207 3.38507 19.5717C3.38507 20.1263 3.65259 20.3993 4.20058 20.3993C7.78191 20.3993 11.3633 20.3993 14.9489 20.3993C15.5314 20.3993 15.7946 20.1393 15.7946 19.5587C15.7946 19.1471 15.7903 18.7354 15.7946 18.3238C15.7989 17.9208 16.0923 17.6261 16.4893 17.6305C16.869 17.6305 17.1711 17.9295 17.1711 18.3151C17.1667 18.9131 17.2056 19.5197 17.1193 20.1047C16.9812 21.0753 16.1096 21.7773 15.1344 21.7773C11.4452 21.7816 7.75603 21.7816 4.06682 21.7773C2.91475 21.7643 2 20.8456 2 19.7017C2 14.164 2 8.62627 2 3.08856C2 1.91429 2.90612 1.00433 4.07113 1.00433C7.75171 1 11.4237 1 15.0999 1C16.2477 1 17.1538 1.91862 17.1581 3.07989C17.1624 3.92918 17.1581 4.7828 17.1581 5.63209C17.1624 5.71009 17.1624 5.78809 17.1624 5.88775Z" fill="#9796A1"/>
<path d="M7.51892 5.84418C6.8458 5.84418 6.17268 5.84418 5.49956 5.84418C5.06376 5.84418 4.76172 5.55819 4.76172 5.15088C4.76172 4.74357 5.06376 4.46191 5.50387 4.46191C6.8458 4.46191 8.1834 4.46191 9.52533 4.46191C9.97407 4.46191 10.2804 4.7479 10.2761 5.16388C10.2718 5.56252 9.96544 5.84418 9.52533 5.84418C8.85221 5.84418 8.1834 5.84418 7.51892 5.84418Z" fill="#9796A1"/>
<path d="M7.50166 9.30658C6.83717 9.30658 6.16836 9.30658 5.50387 9.30658C5.06807 9.30658 4.76172 9.02059 4.76172 8.61761C4.76172 8.2103 5.05944 7.92432 5.49956 7.92432C6.86306 7.92432 8.22224 7.92432 9.58573 7.92432C9.93524 7.92432 10.233 8.1843 10.2718 8.51362C10.3149 8.8646 10.1121 9.18092 9.7799 9.27625C9.69792 9.29791 9.61162 9.30225 9.52533 9.30225C8.84789 9.30658 8.17477 9.30658 7.50166 9.30658Z" fill="#9796A1"/>
<path d="M7.50602 12.7685C6.84153 12.7685 6.17272 12.7685 5.50824 12.7685C5.06812 12.7685 4.76608 12.4868 4.76176 12.0839C4.75745 11.6722 5.05949 11.3862 5.49529 11.3862C6.84153 11.3862 8.19208 11.3862 9.53832 11.3862C9.97412 11.3862 10.2762 11.6765 10.2762 12.0839C10.2762 12.4868 9.9698 12.7685 9.52969 12.7728C8.85225 12.7685 8.17913 12.7685 7.50602 12.7685Z" fill="#9796A1"/>
<path d="M7.51892 16.2309C6.8458 16.2309 6.17268 16.2309 5.49956 16.2309C5.06376 16.2309 4.76172 15.9449 4.76172 15.5376C4.76172 15.1303 5.05944 14.8486 5.50387 14.8486C6.8458 14.8486 8.1834 14.8486 9.52533 14.8486C9.97839 14.8486 10.2804 15.1346 10.2761 15.5506C10.2718 15.9492 9.96544 16.2309 9.52533 16.2309C8.85221 16.2309 8.1834 16.2266 7.51892 16.2309Z" fill="#9796A1"/>
<path d="M17.1621 12.0755C17.1621 12.5434 17.1621 12.9811 17.1621 13.4187C17.1621 13.852 16.8687 14.1553 16.4631 14.151C16.0704 14.1467 15.7856 13.8434 15.7856 13.4187C15.7856 12.7471 15.7856 12.0798 15.7856 11.4082C15.7856 10.9748 16.0661 10.6932 16.4976 10.6932C17.1707 10.6889 17.8438 10.6889 18.517 10.6932C18.9182 10.6932 19.2203 10.9878 19.2246 11.3735C19.2289 11.7765 18.9312 12.0711 18.517 12.0755C18.0768 12.0755 17.6324 12.0755 17.1621 12.0755Z" fill="#9796A1"/>
</svg>
