<svg width="23" height="23" viewBox="0 0 23 23" fill="none" xmlns="http://www.w3.org/2000/svg">
<path d="M17.25 7.6665C17.25 6.14151 16.6442 4.67897 15.5659 3.60064C14.4875 2.52231 13.025 1.9165 11.5 1.9165C9.97501 1.9165 8.51247 2.52231 7.43414 3.60064C6.3558 4.67897 5.75 6.14151 5.75 7.6665C5.75 14.3748 2.875 16.2915 2.875 16.2915H20.125C20.125 16.2915 17.25 14.3748 17.25 7.6665Z" stroke="#9796A1" stroke-width="2" stroke-linecap="round" stroke-linejoin="round"/>
<path d="M13.1581 20.125C12.9896 20.4154 12.7478 20.6565 12.4568 20.8241C12.1659 20.9917 11.836 21.0799 11.5002 21.0799C11.1644 21.0799 10.8345 20.9917 10.5436 20.8241C10.2526 20.6565 10.0108 20.4154 9.84229 20.125" stroke="#9796A1" stroke-width="2" stroke-linecap="round" stroke-linejoin="round"/>
</svg>
