<svg width="23" height="23" viewBox="0 0 23 23" fill="none" xmlns="http://www.w3.org/2000/svg">
<path d="M15.274 2C15.6066 2.15163 15.8513 2.36684 15.8562 2.76791C15.861 2.96356 15.8562 3.15921 15.8562 3.35485C15.8562 3.41844 15.8562 3.48202 15.8562 3.56517C16.1888 3.56517 16.5068 3.56517 16.8248 3.56517C18.361 3.57006 19.6037 4.56297 19.9364 6.06456C19.9706 6.22597 19.9951 6.39716 19.9951 6.56835C20 8.0895 20 9.61555 20 11.1367C20 11.5476 19.7113 11.8753 19.3297 11.9193C18.9237 11.9682 18.5616 11.7236 18.4638 11.3275C18.4442 11.2394 18.4442 11.1465 18.4442 11.0584C18.4442 9.64489 18.4442 8.23624 18.4442 6.82269C18.4442 6.43629 18.361 6.07434 18.1213 5.76131C17.8278 5.37491 17.4315 5.16948 16.9569 5.14502C16.5998 5.12546 16.2426 5.14013 15.8659 5.14013C15.8659 5.38958 15.8659 5.63903 15.8659 5.88359C15.861 6.35803 15.5333 6.69552 15.0783 6.69552C14.638 6.69552 14.3102 6.35314 14.3053 5.88848C14.3053 5.64392 14.3053 5.39936 14.3053 5.14013C13.1164 5.14013 11.9472 5.14013 10.7485 5.14013C10.7485 5.39936 10.7534 5.66348 10.7485 5.92761C10.7436 6.30423 10.4746 6.61726 10.1076 6.68574C9.75537 6.74932 9.37866 6.55857 9.25146 6.22108C9.19764 6.07923 9.19764 5.91782 9.18786 5.76131C9.17807 5.56077 9.18297 5.36023 9.18297 5.14502C8.01369 5.14502 6.84931 5.14502 5.66536 5.14502C5.66536 5.25752 5.66536 5.37491 5.66536 5.4874C5.66536 6.33847 5.43542 6.69552 4.87769 6.69063C4.32974 6.69063 4.0998 6.33357 4.0998 5.47762C4.0998 5.37001 4.0998 5.25752 4.0998 5.10589C3.63503 5.13524 3.18004 5.10589 2.74951 5.19393C2.00098 5.35045 1.56556 5.98141 1.56066 6.78845C1.55577 8.13352 1.56066 9.48349 1.56066 10.8286C1.56066 13.4698 1.56066 16.111 1.56066 18.7522C1.56066 19.4223 1.81996 19.9653 2.44618 20.2538C2.6908 20.3663 2.98434 20.4201 3.25342 20.425C5.1908 20.4397 7.13307 20.4348 9.07044 20.4299C9.38355 20.4299 9.62817 20.5571 9.77983 20.831C9.92661 21.0951 9.92171 21.369 9.76027 21.6283C9.61839 21.8581 9.40312 21.9902 9.12915 21.9902C7.05968 21.9902 4.99021 22.0049 2.92074 21.9853C1.54109 21.9706 0.239726 20.7674 0.0391389 19.3832C0.0342465 19.3392 0.0146771 19.3001 0 19.2609C0 14.9371 0 10.6182 0 6.29445C0.00978473 6.27488 0.0293542 6.25042 0.0342465 6.23086C0.308219 4.63145 1.56556 3.56517 3.19471 3.56517C3.49315 3.56517 3.79158 3.56517 4.10469 3.56517C4.10469 3.48202 4.10469 3.41844 4.10469 3.35485C4.10469 3.15921 4.10469 2.96356 4.10469 2.76791C4.10959 2.36684 4.3591 2.15163 4.68688 2C4.81898 2 4.94618 2 5.07827 2C5.53816 2.18586 5.70939 2.53803 5.66536 3.02225C5.65068 3.19834 5.66046 3.37931 5.66046 3.55539C6.84931 3.55539 8.00391 3.55539 9.17807 3.55539C9.17807 3.48202 9.17807 3.41844 9.17807 3.35485C9.17807 3.15921 9.17807 2.96356 9.17807 2.76791C9.18297 2.37173 9.43248 2.15163 9.76027 2C9.89236 2 10.0196 2 10.1517 2C10.6115 2.18586 10.7828 2.53803 10.7387 3.02225C10.7241 3.19834 10.7338 3.37931 10.7338 3.55539C11.9325 3.55539 13.1018 3.55539 14.2906 3.55539C14.2906 3.48202 14.2906 3.41844 14.2906 3.35485C14.2906 3.15921 14.2906 2.96356 14.2906 2.76791C14.2955 2.37173 14.545 2.15163 14.8728 2C15.0147 2 15.1419 2 15.274 2Z" fill="#9796A1"/>
<path d="M20.0004 17.2806C19.9955 19.8876 17.8673 22.0006 15.2597 21.9908C12.6521 21.9859 10.5386 19.8582 10.5484 17.2561C10.5533 14.6491 12.6814 12.5361 15.2842 12.5459C17.8918 12.5508 20.0053 14.6785 20.0004 17.2806ZM15.2646 20.4354C16.9867 20.4452 18.4153 19.0267 18.4349 17.2904C18.4544 15.5638 17.0161 14.116 15.2793 14.1111C13.5572 14.1013 12.1286 15.5198 12.109 17.2561C12.0895 18.9778 13.5278 20.4256 15.2646 20.4354Z" fill="#9796A1"/>
<path d="M4.87749 10.9803C4.44696 10.9803 4.10449 10.633 4.10449 10.1977C4.10449 9.75746 4.45674 9.41508 4.90195 9.41997C5.33248 9.42486 5.67005 9.77703 5.66516 10.2123C5.66026 10.6428 5.31291 10.9851 4.87749 10.9803Z" fill="#9796A1"/>
<path d="M9.06071 10.1976C9.06071 10.6329 8.72314 10.9802 8.28772 10.9802C7.84252 10.9851 7.49516 10.6378 7.50005 10.1927C7.50005 9.7623 7.84741 9.41992 8.28283 9.41992C8.71336 9.41992 9.06071 9.7623 9.06071 10.1976Z" fill="#9796A1"/>
<path d="M12.4611 10.2123C12.4562 10.6428 12.1137 10.9851 11.6783 10.9851C11.238 10.9851 10.8956 10.633 10.9004 10.1879C10.9053 9.75746 11.2576 9.41997 11.693 9.42486C12.1235 9.42486 12.4611 9.77702 12.4611 10.2123Z" fill="#9796A1"/>
<path d="M15.0836 10.9802C14.6482 10.9802 14.3008 10.6427 14.2959 10.2123C14.2911 9.76719 14.6384 9.41992 15.0787 9.41992C15.5093 9.41992 15.8566 9.7672 15.8566 10.1976C15.8566 10.6329 15.519 10.9802 15.0836 10.9802Z" fill="#9796A1"/>
<path d="M4.87749 12.8193C5.31292 12.8193 5.66027 13.1568 5.66027 13.5921C5.66517 14.0372 5.31781 14.3845 4.8726 14.3796C4.44207 14.3796 4.09961 14.0323 4.09961 13.597C4.1045 13.1666 4.44697 12.8193 4.87749 12.8193Z" fill="#9796A1"/>
<path d="M9.06071 13.597C9.06071 14.0323 8.72314 14.3796 8.28772 14.3796C7.84252 14.3845 7.49516 14.0372 7.50005 13.5921C7.50005 13.1617 7.84741 12.8193 8.28283 12.8193C8.71336 12.8193 9.06071 13.1617 9.06071 13.597Z" fill="#9796A1"/>
<path d="M4.87749 17.7742C4.44697 17.7742 4.09961 17.4269 4.09961 16.9965C4.09961 16.5563 4.45186 16.209 4.89217 16.2139C5.3227 16.2188 5.66027 16.5661 5.66027 17.0014C5.66027 17.4367 5.31292 17.7791 4.87749 17.7742Z" fill="#9796A1"/>
<path d="M8.27299 17.7742C7.84247 17.7693 7.5 17.4269 7.5 16.9916C7.5 16.5514 7.85225 16.209 8.29746 16.2139C8.72798 16.2188 9.06556 16.571 9.06066 17.0063C9.05577 17.4416 8.70841 17.7791 8.27299 17.7742Z" fill="#9796A1"/>
<path d="M16.0521 16.4876C16.1989 16.4876 16.3163 16.4827 16.4288 16.4876C16.8545 16.5023 17.1823 16.8446 17.1823 17.2751C17.1823 17.6957 16.8545 18.0381 16.4386 18.0479C16.0423 18.0577 15.6461 18.0528 15.2498 18.0479C14.829 18.043 14.5012 17.7104 14.4963 17.2849C14.4915 16.737 14.4915 16.1892 14.4963 15.6463C14.5012 15.2159 14.8486 14.8882 15.2791 14.8882C15.7048 14.8882 16.0472 15.2208 16.057 15.6512C16.057 15.9202 16.0521 16.1941 16.0521 16.4876Z" fill="#9796A1"/>
</svg>
