<svg width="21" height="22" viewBox="0 0 21 22" fill="none" xmlns="http://www.w3.org/2000/svg">
<path d="M7.30809 20.6603V17.2867C7.30808 16.4319 8.00322 15.7374 8.86426 15.732H12.0259C12.8907 15.732 13.5919 16.4281 13.5919 17.2867V20.6505C13.5919 21.392 14.1944 21.9946 14.9412 22H17.0982C18.1056 22.0025 19.0726 21.607 19.7859 20.9007C20.4991 20.1944 20.9 19.2354 20.9 18.2352V8.65242C20.9 7.84451 20.5392 7.07817 19.915 6.55984L12.5873 0.741694C11.3063 -0.275965 9.47689 -0.243091 8.23392 0.819921L1.06371 6.55984C0.410014 7.06289 0.0193075 7.83151 0 8.65242V18.2255C0 20.31 1.70212 22 3.80178 22H5.90951C6.26908 22.0025 6.61482 21.8625 6.87001 21.611C7.12519 21.3595 7.26871 21.0173 7.2687 20.6603H7.30809Z" fill="#F37020"/>
</svg>
