<svg width="23" height="23" viewBox="0 0 23 23" fill="none" xmlns="http://www.w3.org/2000/svg">
<path d="M8.64372 19.7821V16.7152C8.64371 15.9381 9.27566 15.3067 10.0584 15.3018H12.9326C13.7189 15.3018 14.3562 15.9346 14.3562 16.7152V19.7732C14.3562 20.4472 14.904 20.9951 15.5829 21H17.5438C18.4596 21.0023 19.3387 20.6428 19.9871 20.0007C20.6356 19.3586 21 18.4867 21 17.5775V8.86583C21 8.13138 20.672 7.4347 20.1046 6.96349L13.443 1.67427C12.2785 0.749123 10.6154 0.779009 9.48538 1.74538L2.96701 6.96349C2.37274 7.42081 2.01755 8.11955 2 8.86583V17.5686C2 19.4637 3.54738 21 5.45617 21H7.37228C7.69916 21.0023 8.01348 20.875 8.24546 20.6464C8.47745 20.4177 8.60791 20.1066 8.60791 19.7821H8.64372Z" stroke="#9796A1" stroke-width="1.5"/>
</svg>
