<svg width="26" height="26" viewBox="0 0 26 26" fill="none" xmlns="http://www.w3.org/2000/svg">
<circle cx="13" cy="13" r="13" fill="#FF003D"/>
<path d="M18.1199 7.15447L18.1199 7.15447C18.13 7.16577 18.1441 7.18215 18.1599 7.20062C18.1892 7.23483 18.2247 7.2762 18.2529 7.30566C19.7475 8.87503 20.5074 10.7661 20.5393 12.9806C20.5363 13.6752 20.4616 14.3542 20.2882 15.016L20.288 15.0169C19.8299 16.7984 18.9047 18.2628 17.4957 19.3645L17.4956 19.3646C15.3233 21.0654 12.915 21.4817 10.3213 20.6876L10.3212 20.6876C8.79331 20.2212 7.53321 19.2976 6.52837 17.9887C5.46807 16.6043 4.90551 15.0252 4.84829 13.2513L4.84828 13.251C4.79965 11.7965 5.10549 10.4259 5.78485 9.15647C6.18235 8.41441 6.6205 7.73493 7.25529 7.22921L7.2559 7.22873C7.59706 6.95476 7.96239 6.84829 8.36732 6.92963C8.90073 7.03779 9.26848 7.35363 9.43645 7.89259C9.60063 8.43185 9.49792 8.91016 9.11789 9.32038L9.11639 9.322L9.1164 9.322C9.07825 9.3641 9.03482 9.40249 8.98123 9.44985C8.97574 9.4547 8.97015 9.45964 8.96444 9.46469C8.9069 9.51564 8.83858 9.57714 8.77882 9.65077C7.98719 10.6197 7.55932 11.7497 7.5776 13.0283C7.59887 14.6386 8.21682 15.9965 9.42288 17.0076L18.1199 7.15447ZM18.1199 7.15447L18.1189 7.15338M18.1199 7.15447L18.1189 7.15338M18.1189 7.15338C17.6518 6.62557 16.8737 6.53324 16.3189 6.93258L16.3187 6.93274M18.1189 7.15338L16.3187 6.93274M16.3187 6.93274C15.7418 7.34676 15.5446 8.11702 15.8684 8.75804L15.869 8.7594M16.3187 6.93274L15.869 8.7594M15.869 8.7594C15.9439 8.91045 16.0598 9.05496 16.1883 9.18344L16.1892 9.18434M15.869 8.7594L16.1892 9.18434M16.1892 9.18434C17.5807 10.5928 18.1326 12.2978 17.6403 14.2807L17.6402 14.2808M16.1892 9.18434L17.6402 14.2808M17.6402 14.2808C17.1697 16.1729 15.9655 17.4214 14.1842 17.9862L14.184 17.9863M17.6402 14.2808L14.184 17.9863M14.184 17.9863C12.4509 18.5332 10.8258 18.1867 9.42298 17.0076L14.184 17.9863Z" fill="white" stroke="#FF003D" stroke-width="0.4"/>
<path d="M13.3483 4.1034L13.3485 4.10349C13.8185 4.37307 14.0679 4.79264 14.0705 5.36389C14.0705 5.36396 14.0705 5.36402 14.0705 5.36408L13.3483 4.1034ZM13.3483 4.1034C12.8919 3.84106 12.4268 3.85123 11.9797 4.13284L11.9791 4.13321M13.3483 4.1034L11.9791 4.13321M11.9791 4.13321C11.5475 4.40305 11.3121 4.80721 11.3121 5.33873L11.3121 5.33924M11.9791 4.13321L11.3121 5.33924M11.3121 5.33924C11.3062 7.60013 11.3062 8.39444 11.3121 10.6553C11.3147 11.4 11.8553 12.0048 12.5428 12.0735L12.5436 12.0735M11.3121 5.33924L12.5436 12.0735M12.5436 12.0735C13.2624 12.148 13.909 11.6656 14.0537 10.9262L14.0538 10.926M12.5436 12.0735L14.0538 10.926M14.0538 10.926C14.0731 10.8275 14.0764 10.7223 14.0764 10.6015L14.0538 10.926Z" fill="white" stroke="#FF003D" stroke-width="0.4"/>
</svg>
