<svg width="17" height="19" viewBox="0 0 17 19" fill="none" xmlns="http://www.w3.org/2000/svg">
<path d="M13.9711 4.28859L13.9711 4.28859L13.9692 4.28641C13.5677 3.83279 12.9043 3.75812 12.4358 4.09539L12.4353 4.09572C11.9373 4.45316 11.7683 5.11666 12.0469 5.66837L12.0482 5.6711C12.1101 5.79596 12.2102 5.92301 12.3297 6.04248L12.3315 6.04426C13.768 7.49822 14.3448 9.27351 13.8344 11.3294L13.8343 11.3295C13.3469 13.2894 12.0919 14.5916 10.2447 15.1773L10.2441 15.1775C8.44349 15.7457 6.7475 15.3827 5.29409 14.1611C4.04128 13.1106 3.39967 11.6968 3.37762 10.0317C3.35863 8.70294 3.80445 7.52798 4.62356 6.5252C4.69482 6.43739 4.77449 6.36624 4.83187 6.31544C4.83689 6.31099 4.84175 6.30669 4.84646 6.30253C4.9028 6.25268 4.93786 6.22167 4.96819 6.1882L4.96817 6.18818L4.97117 6.18495C5.30094 5.82898 5.38927 5.42543 5.24532 4.95198C5.09967 4.48526 4.79153 4.22026 4.32775 4.12616C3.98915 4.05821 3.68292 4.14281 3.38112 4.38516L3.37991 4.38612C2.7777 4.8659 2.3551 5.51596 1.96112 6.25146C1.29911 7.48851 1.00066 8.824 1.04817 10.2448L1.04819 10.2453C1.10407 11.9779 1.65253 13.5167 2.6871 14.8675C3.66932 16.1469 4.89571 17.0439 6.37955 17.4968L6.37988 17.4969C8.91221 18.2721 11.2524 17.8673 13.3723 16.2076L13.3725 16.2075C14.7445 15.1347 15.6464 13.7092 16.0943 11.9676L16.0947 11.9658C16.263 11.3235 16.3362 10.6622 16.3392 9.98213C16.3077 7.81725 15.5665 5.97535 14.1078 4.44387L14.3975 4.168L14.1086 4.4447C14.0773 4.41197 14.026 4.35224 13.995 4.31625C13.9836 4.30291 13.9749 4.29283 13.9711 4.28859Z" fill="#F37020" stroke="white" stroke-width="0.8"/>
<path d="M7.11157 7.65644C7.1145 8.49678 7.72628 9.1935 8.52248 9.27295C9.34796 9.35852 10.0856 8.80236 10.2495 7.96507C10.273 7.84589 10.2759 7.72366 10.2759 7.60143M7.11157 7.65644C7.10572 5.39514 7.10572 4.60051 7.11157 2.33921C7.11157 1.73722 7.3838 1.26968 7.87265 0.964103C8.38198 0.643244 8.92644 0.63102 9.44748 0.930489C9.98023 1.23607 10.2671 1.72194 10.27 2.36366M7.11157 7.65644L7.51157 7.6554C7.51157 7.65537 7.51157 7.65534 7.51157 7.65531C7.51396 8.30426 7.98345 8.81718 8.5622 8.87493L8.56372 8.87509C9.17587 8.93854 9.73137 8.52982 9.85699 7.88822L9.85704 7.88795C9.87234 7.8101 9.87586 7.72176 9.87588 7.60247M7.11157 7.65644L7.51157 7.65504L9.87588 7.60247M10.27 2.36366C10.2719 3.08143 10.2714 3.50107 10.2708 4.00316C10.2704 4.28769 10.27 4.5987 10.27 5.00546V5.00552C10.27 6.11473 10.27 6.49219 10.2759 7.60143M10.27 2.36366L9.87003 2.36548C9.87003 2.36536 9.87003 2.36524 9.87003 2.36512M10.27 2.36366L9.87003 2.3647C9.87003 2.36484 9.87003 2.36498 9.87003 2.36512M10.2759 7.60143L9.87588 7.60354C9.87588 7.60318 9.87588 7.60283 9.87588 7.60247M10.2759 7.60143H9.87588C9.87588 7.60178 9.87588 7.60212 9.87588 7.60247M9.87588 7.60247C9.87002 6.49303 9.87002 6.11466 9.87002 5.00546C9.87002 4.59767 9.87041 4.28635 9.87076 4.00178C9.87138 3.50037 9.87189 3.08197 9.87003 2.36512M9.87588 7.60247L7.51157 2.34025L7.51157 2.33921C7.51157 1.87817 7.71016 1.5374 8.08467 1.30329L8.08585 1.30255L8.08585 1.30255C8.47056 1.0602 8.8563 1.05207 9.24816 1.27729L9.24846 1.27746C9.6557 1.51105 9.86764 1.86432 9.87003 2.36512" fill="#F37020" stroke="white" stroke-width="0.8"/>
</svg>
