<svg width="22" height="22" viewBox="0 0 22 22" fill="none" xmlns="http://www.w3.org/2000/svg">
<path d="M21 14.6315C20.9374 14.9864 20.8852 15.3465 20.8017 15.7013C20.2122 18.3055 17.953 20.4452 15.3287 20.8784C14.8904 20.9514 14.4365 20.988 13.993 20.9932C11.9895 21.0036 9.98601 20.9984 7.9773 20.9984C4.7738 20.9984 2.05552 18.9161 1.23638 15.8161C1.10073 15.2995 1.0329 14.7515 1.01725 14.2192C0.985945 13.1546 1.00681 12.0847 1.00681 11.0149C1.00681 10.5556 1.34073 10.2164 1.78943 10.2164C2.23291 10.2164 2.56683 10.5556 2.56683 11.0149C2.56683 12.0325 2.56161 13.045 2.56683 14.0626C2.58248 16.4163 4.05379 18.4308 6.27642 19.1718C6.82425 19.3545 7.38773 19.438 7.96165 19.438C9.98601 19.4432 12.0104 19.4432 14.0347 19.438C16.6748 19.4275 18.8609 17.6114 19.3461 15.0177C19.4087 14.6941 19.4296 14.3601 19.4348 14.0261C19.44 12.0064 19.4452 9.99198 19.4348 7.9723C19.4243 5.40988 17.7443 3.28583 15.2504 2.70654C14.8487 2.61261 14.426 2.57086 14.0139 2.57086C12.0052 2.5552 9.99123 2.56042 7.98252 2.56564C6.6312 2.56564 5.43641 3.00923 4.40858 3.89121C4.36684 3.92774 4.33032 3.95905 4.29379 3.99559C4.28336 4.00602 4.27814 4.01646 4.25206 4.05821C4.33032 4.06343 4.39814 4.06865 4.46075 4.06865C4.88858 4.07387 5.32163 4.06343 5.74946 4.07909C6.07816 4.09474 6.33903 4.32437 6.42772 4.63228C6.51642 4.94541 6.42251 5.28463 6.1512 5.46207C6.00511 5.556 5.81728 5.62907 5.64511 5.62907C4.64858 5.64994 3.64683 5.64472 2.64509 5.6395C2.15987 5.6395 1.82595 5.30028 1.82595 4.81494C1.82595 3.87555 1.8416 2.94139 1.82073 2.00201C1.80508 1.52188 1.95639 1.18788 2.4103 1C2.54074 1 2.67117 1 2.80161 1C3.25553 1.18266 3.43292 1.52188 3.39118 2.00201C3.37031 2.21598 3.38596 2.43517 3.38596 2.68567C3.46422 2.62826 3.51118 2.59695 3.55292 2.56042C4.38249 1.87676 5.31641 1.4175 6.3599 1.17744C6.67816 1.10438 7.00686 1.05741 7.33034 1C9.76688 1 12.1982 1 14.6347 1C14.8643 1.03653 15.0939 1.07306 15.3234 1.11481C17.9948 1.5845 20.1965 3.6668 20.807 6.31795C20.8852 6.66239 20.9374 7.01726 21 7.36692C21 9.78844 21 12.21 21 14.6315Z" fill="#9796A1" stroke="#9796A1" stroke-width="0.5"/>
<path d="M10.2207 8.68199C10.2207 7.9357 10.2207 7.1842 10.2207 6.43791C10.2207 5.94734 10.5442 5.60812 11.0085 5.61334C11.4572 5.61856 11.7807 5.95778 11.7807 6.43791C11.7807 7.76348 11.7859 9.09427 11.7755 10.4198C11.7755 10.6077 11.8329 10.733 11.9633 10.8582C12.8399 11.7298 13.7164 12.6013 14.5877 13.4781C14.9268 13.8173 14.9529 14.2713 14.6555 14.5949C14.3425 14.9393 13.8468 14.9498 13.4972 14.6001C12.9442 14.0573 12.4016 13.5042 11.8538 12.9562C11.4051 12.5074 10.9564 12.0533 10.5024 11.6045C10.3094 11.4166 10.2207 11.1974 10.2207 10.9261C10.2259 10.1798 10.2207 9.4335 10.2207 8.68199Z" fill="#9796A1" stroke="#9796A1" stroke-width="0.5"/>
</svg>
