<svg width="22" height="24" viewBox="0 0 22 24" fill="none" xmlns="http://www.w3.org/2000/svg">
<path fill-rule="evenodd" clip-rule="evenodd" d="M0.709222 0.709222L0 1.41816V10.8333V20.2485L0.709222 20.9574C1.41556 21.6641 1.43953 21.6667 7.3112 21.6667H13.204L13.0673 20.2439C12.9156 18.6637 13.8031 17.3333 15.0092 17.3333C15.5272 17.3333 15.6 17.1516 15.6 15.8603C15.6 14.5961 15.7228 14.2726 16.4667 13.5778C17.3307 12.7706 17.3333 12.7585 17.3333 9.50416V6.24L14.2133 3.12L11.0933 0H6.25589C1.50482 0 1.40544 0.0127111 0.709222 0.709222ZM13.3943 6.87411C10.2998 6.99284 10.4 7.08471 10.4 4.13169V1.60102L13.0078 4.19496L15.6153 6.78889L13.3943 6.87411ZM5.48369 10.0487C6.86429 11.1667 6.02824 13.8667 4.30127 13.8667C3.87024 13.8667 3.75556 14.079 3.75556 14.8778C3.75556 15.7638 3.666 15.8889 3.03333 15.8889H2.31111V12.8795C2.31111 10.7426 2.41569 9.828 2.67222 9.72458C3.47476 9.40073 4.88396 9.56338 5.48369 10.0487ZM10.1334 10.3778C12.3607 12.6051 10.5369 16.3947 7.45564 15.9423L6.64444 15.8233V12.8709C6.64444 11.247 6.73111 9.83176 6.83713 9.72602C7.38544 9.17771 9.31464 9.55933 10.1334 10.3778ZM14.8778 10.2556C14.8778 10.6961 14.655 10.8547 13.9389 10.9238C12.6343 11.0497 12.5696 12.1333 13.8667 12.1333C14.5984 12.1333 14.7333 12.2457 14.7333 12.8556C14.7333 13.4654 14.5984 13.5778 13.8667 13.5778C13.0482 13.5778 13 13.6419 13 14.7333C13 15.7733 12.9278 15.8889 12.2778 15.8889H11.5556V12.9038C11.5556 9.43049 11.5267 9.48162 13.4224 9.59256C14.6568 9.66478 14.8778 9.7656 14.8778 10.2556ZM3.75556 11.7C3.75556 12.385 3.88902 12.7111 4.16953 12.7111C4.7372 12.7111 5.03707 11.6223 4.61067 11.1084C4.04329 10.4248 3.75556 10.6239 3.75556 11.7ZM8.08889 12.7111C8.08889 14.7666 8.37315 15.2002 9.18667 14.3867C9.77975 13.7936 9.62636 11.3369 8.97462 10.9879C8.10853 10.5245 8.08889 10.5624 8.08889 12.7111ZM17.68 15.08C17.4838 15.2762 17.3333 16.2162 17.3333 17.2467V19.0667H16.3575C14.4661 19.0667 14.48 19.7288 16.4138 21.7296L18.1581 23.5343L19.9527 21.7398C21.9417 19.7508 21.9645 19.0667 20.0425 19.0667H19.0667V17.2467C19.0667 15.6332 18.7564 14.7333 18.2 14.7333C18.1047 14.7333 17.8707 14.8893 17.68 15.08Z" fill="white"/>
</svg>
