<svg width="19" height="22" viewBox="0 0 19 22" fill="none" xmlns="http://www.w3.org/2000/svg">
<path d="M7.40694 14.9048C8.99058 14.7772 10.5815 14.7772 12.1651 14.9048C13.0275 14.9551 13.8858 15.063 14.7346 15.2278C16.5712 15.5996 17.7703 16.2064 18.2842 17.1851C18.6701 17.9488 18.6701 18.8581 18.2842 19.6219C17.7703 20.6005 16.6188 21.2464 14.7155 21.5792C13.8674 21.7502 13.0089 21.8614 12.1461 21.9119C11.3467 22 10.5473 22 9.73846 22H8.28245C7.97793 21.9609 7.68292 21.9413 7.39743 21.9413C6.53455 21.8969 5.67587 21.789 4.828 21.6183C2.99134 21.266 1.79228 20.6397 1.27839 19.661C1.08002 19.2819 0.97543 18.8584 0.973747 18.4279C0.969734 17.9948 1.07116 17.5675 1.26888 17.1851C1.77325 16.2064 2.97231 15.5703 4.828 15.2278C5.67961 15.0606 6.54121 14.9527 7.40694 14.9048ZM9.77652 0C12.9668 0 15.553 2.6596 15.553 5.94039C15.553 9.22118 12.9668 11.8808 9.77652 11.8808C6.58628 11.8808 4.00008 9.22118 4.00008 5.94039C4.00008 2.6596 6.58628 0 9.77652 0Z" fill="#D3D1D8"/>
</svg>
