<svg width="24" height="24" viewBox="0 0 24 24" fill="none" xmlns="http://www.w3.org/2000/svg">
<g clip-path="url(#clip0_384_2384)">
<path d="M17.896 18.9126L19.865 19.9386C20.248 20.1386 20.696 19.8156 20.623 19.3926L20.247 17.2176L21.84 15.6776C22.15 15.3776 21.979 14.8546 21.55 14.7926L19.349 14.4746L18.364 12.4936C18.172 12.1076 17.618 12.1076 17.427 12.4936L16.442 14.4746L14.241 14.7926C13.813 14.8546 13.641 15.3776 13.951 15.6776L15.544 17.2176L15.168 19.3926C15.095 19.8156 15.543 20.1396 15.926 19.9386L17.895 18.9126" stroke="white" stroke-width="1.8" stroke-linecap="round" stroke-linejoin="round"/>
<path d="M11.9995 10.7065L13.9685 11.7325C14.3515 11.9325 14.7995 11.6095 14.7265 11.1865L14.3505 9.01152L15.9435 7.47152C16.2535 7.17152 16.0825 6.64852 15.6535 6.58652L13.4535 6.26952L12.4685 4.28852C12.2765 3.90252 11.7225 3.90252 11.5315 4.28852L10.5475 6.26952L8.34552 6.58752C7.91752 6.64952 7.74552 7.17252 8.05552 7.47252L9.64852 9.01252L9.27252 11.1875C9.19952 11.6105 9.64752 11.9345 10.0305 11.7335L11.9995 10.7075" stroke="white" stroke-width="1.8" stroke-linecap="round" stroke-linejoin="round"/>
<path d="M6.10208 18.9126L8.07108 19.9386C8.45408 20.1386 8.90208 19.8156 8.82908 19.3926L8.45308 17.2176L10.0461 15.6776C10.3561 15.3776 10.1851 14.8546 9.75608 14.7926L7.55508 14.4746L6.57008 12.4936C6.37808 12.1076 5.82408 12.1076 5.63308 12.4936L4.64808 14.4746L2.44708 14.7926C2.01908 14.8546 1.84708 15.3776 2.15708 15.6776L3.75008 17.2176L3.37408 19.3926C3.30108 19.8156 3.74908 20.1396 4.13208 19.9386L6.10108 18.9126" stroke="white" stroke-width="1.8" stroke-linecap="round" stroke-linejoin="round"/>
</g>
<defs>
<clipPath id="clip0_384_2384">
<rect width="24" height="24" fill="white"/>
</clipPath>
</defs>
</svg>
