<svg width="21" height="22" viewBox="0 0 21 22" fill="none" xmlns="http://www.w3.org/2000/svg">
<path opacity="0.4" d="M19.8499 12.8871C18.8089 12.2844 18.4486 10.9848 19.0368 9.95374C19.2298 9.62084 19.5105 9.34409 19.8499 9.15196C20.3658 8.86343 20.7425 8.38678 20.897 7.82726C21.0514 7.26773 20.9709 6.67134 20.6731 6.16975L19.9403 4.88887C19.644 4.38643 19.1546 4.0195 18.5802 3.86907C18.0057 3.71864 17.3934 3.79709 16.8784 4.08709C16.3619 4.37756 15.748 4.45627 15.1719 4.3059C14.5958 4.15554 14.1046 3.78842 13.8065 3.28532C13.6113 2.95149 13.5076 2.57437 13.5053 2.19021C13.508 1.61023 13.2733 1.05312 12.8532 0.642088C12.433 0.23106 11.8621 -5.83138e-06 11.2666 1.11102e-10H9.79089C8.55286 -1.20158e-05 7.54769 0.974634 7.54216 2.18044C7.54637 2.96248 7.12024 3.68682 6.4254 4.07873C5.73056 4.47065 4.87344 4.47011 4.17912 4.07732C3.65938 3.77551 3.03634 3.69147 2.45195 3.84436C1.86756 3.99725 1.37161 4.37403 1.07708 4.88887L0.374358 6.12086C-0.239849 7.16629 0.12791 8.49858 1.19755 9.10307C2.26956 9.7112 2.63342 11.05 2.01071 12.0951C1.82025 12.4274 1.53872 12.7016 1.19755 12.8871C0.681693 13.1756 0.304955 13.6522 0.150506 14.2118C-0.00394156 14.7713 0.0766028 15.3677 0.374358 15.8693L1.07708 17.1208C1.70145 18.1649 3.07603 18.5193 4.149 17.9128C5.2231 17.3203 6.58666 17.6773 7.21088 18.7146C7.40955 19.047 7.51352 19.4251 7.51205 19.8097C7.51202 20.394 7.7517 20.9541 8.17777 21.3654C8.60384 21.7767 9.18098 22.0051 9.78085 21.9999H11.2566C12.4985 21.9999 13.5053 21.0193 13.5053 19.8097C13.4972 19.2263 13.7295 18.6642 14.1502 18.2489C14.571 17.8336 15.145 17.5999 15.744 17.5999C16.139 17.5975 16.5274 17.6989 16.8683 17.8933C17.9417 18.4915 19.3096 18.1333 19.9302 17.0915L20.6731 15.8399C21.2729 14.8019 20.9063 13.4871 19.8499 12.8871Z" fill="#9796A1"/>
</svg>
