<svg width="21" height="22" viewBox="0 0 21 22" fill="none" xmlns="http://www.w3.org/2000/svg">
<path d="M19.8504 12.8871C18.8094 12.2844 18.4491 10.9848 19.0372 9.95374C19.2303 9.62084 19.511 9.34409 19.8504 9.15196C20.3663 8.86343 20.743 8.38678 20.8974 7.82726C21.0519 7.26773 20.9713 6.67134 20.6736 6.16975L19.9408 4.88887C19.6445 4.38643 19.1551 4.0195 18.5807 3.86907C18.0062 3.71864 17.3939 3.79709 16.8789 4.08709C16.3624 4.37756 15.7485 4.45627 15.1724 4.3059C14.5963 4.15554 14.1051 3.78842 13.807 3.28532C13.6118 2.95149 13.5081 2.57437 13.5058 2.19021C13.5085 1.61023 13.2738 1.05312 12.8537 0.642088C12.4335 0.23106 11.8626 -5.83138e-06 11.2671 1.11102e-10H9.79138C8.55335 -1.20158e-05 7.54818 0.974634 7.54265 2.18044C7.54686 2.96248 7.12073 3.68682 6.42589 4.07873C5.73105 4.47065 4.87393 4.47011 4.17961 4.07732C3.65987 3.77551 3.03682 3.69147 2.45244 3.84436C1.86805 3.99725 1.37209 4.37403 1.07757 4.88887L0.374846 6.12086C-0.23936 7.16629 0.128398 8.49858 1.19804 9.10307C2.27005 9.7112 2.63391 11.05 2.01119 12.0951C1.82074 12.4274 1.53921 12.7016 1.19804 12.8871C0.682182 13.1756 0.305443 13.6522 0.150995 14.2118C-0.00345329 14.7713 0.0770911 15.3677 0.374846 15.8693L1.07757 17.1208C1.70194 18.1649 3.07652 18.5193 4.14949 17.9128C5.22359 17.3203 6.58715 17.6773 7.21137 18.7146C7.41004 19.047 7.514 19.4251 7.51254 19.8097C7.51251 20.394 7.75218 20.9541 8.17825 21.3654C8.60432 21.7767 9.18147 22.0051 9.78134 21.9999H11.2571C12.499 21.9999 13.5058 21.0193 13.5058 19.8097C13.4977 19.2263 13.73 18.6642 14.1507 18.2489C14.5714 17.8336 15.1455 17.5999 15.7445 17.5999C16.1395 17.5975 16.5279 17.6989 16.8688 17.8933C17.9422 18.4915 19.3101 18.1333 19.9307 17.0915L20.6736 15.8399C21.2734 14.8019 20.9068 13.4871 19.8504 12.8871Z" fill="#F37020"/>
</svg>
